<?xml version="1.0" encoding="UTF-8" standalone="no"?>
<!DOCTYPE svg PUBLIC "-//W3C//DTD SVG 1.1//EN"
 "http://www.w3.org/Graphics/SVG/1.1/DTD/svg11.dtd">
<!-- Generated by graphviz version 2.43.0 (0)
 -->
<!-- Title: esp8266&#45;micropython&#45;desk&#45;temperature Pages: 1 -->
<svg width="361pt" height="681pt"
 viewBox="0.00 0.00 361.00 681.00" xmlns="http://www.w3.org/2000/svg" xmlns:xlink="http://www.w3.org/1999/xlink">
<g id="graph0" class="graph" transform="scale(1 1) rotate(0) translate(4 677)">
<title>esp8266&#45;micropython&#45;desk&#45;temperature</title>
<polygon fill="white" stroke="transparent" points="-4,4 -4,-677 357,-677 357,4 -4,4"/>
<g id="clust1" class="cluster">
<title>cluster_a</title>
<polygon fill="none" stroke="black" stroke-width="2" points="181,-371 181,-665 345,-665 345,-371 181,-371"/>
<text text-anchor="middle" x="263" y="-649.8" font-family="Times,serif" font-size="14.00">device</text>
</g>
<g id="clust2" class="cluster">
<title>cluster_b</title>
<polygon fill="none" stroke="black" stroke-width="2" points="9,-227 9,-518 159,-518 159,-227 9,-227"/>
<text text-anchor="middle" x="84" y="-502.8" font-family="Times,serif" font-size="14.00">logging</text>
</g>
<g id="clust3" class="cluster">
<title>cluster_c</title>
<polygon fill="none" stroke="black" stroke-width="2" points="8,-8 8,-155 126,-155 126,-8 8,-8"/>
<text text-anchor="middle" x="67" y="-139.8" font-family="Times,serif" font-size="14.00">graphing</text>
</g>
<!-- log -->
<g id="node1" class="node">
<title>log</title>
<polygon fill="none" stroke="black" stroke-width="2" points="94,-199 40,-199 40,-163 94,-163 94,-199"/>
<text text-anchor="middle" x="67" y="-177.3" font-family="Times,serif" font-size="14.00">log</text>
</g>
<!-- read log -->
<g id="node10" class="node">
<title>read log</title>
<polygon fill="none" stroke="black" stroke-width="2" points="104.5,-124 29.5,-124 29.5,-88 104.5,-88 104.5,-124"/>
<text text-anchor="middle" x="67" y="-102.3" font-family="Times,serif" font-size="14.00">read log</text>
</g>
<!-- log&#45;&gt;read log -->
<g id="edge4" class="edge">
<title>log&#45;&gt;read log</title>
<path fill="none" stroke="black" stroke-width="2" d="M67,-162.7C67,-154.25 67,-143.87 67,-134.37"/>
<polygon fill="black" stroke="black" stroke-width="2" points="70.5,-134.18 67,-124.18 63.5,-134.18 70.5,-134.18"/>
</g>
<!-- configure network -->
<g id="node2" class="node">
<title>configure network</title>
<polygon fill="none" stroke="black" stroke-width="2" points="336.5,-634 189.5,-634 189.5,-598 336.5,-598 336.5,-634"/>
<text text-anchor="middle" x="263" y="-612.3" font-family="Times,serif" font-size="14.00">configure network</text>
</g>
<!-- receive request -->
<g id="node3" class="node">
<title>receive request</title>
<polygon fill="none" stroke="black" stroke-width="2" points="325,-562 197,-562 197,-526 325,-526 325,-562"/>
<text text-anchor="middle" x="261" y="-540.3" font-family="Times,serif" font-size="14.00">receive request</text>
</g>
<!-- configure network&#45;&gt;receive request -->
<g id="edge9" class="edge">
<title>configure network&#45;&gt;receive request</title>
<path fill="none" stroke="black" stroke-width="2" stroke-dasharray="1,5" d="M262.51,-597.7C262.29,-589.98 262.02,-580.71 261.77,-572.11"/>
<polygon fill="black" stroke="black" stroke-width="2" points="265.27,-572 261.49,-562.1 258.28,-572.2 265.27,-572"/>
</g>
<!-- measurement -->
<g id="node4" class="node">
<title>measurement</title>
<polygon fill="none" stroke="black" stroke-width="2" points="316.5,-487 201.5,-487 201.5,-451 316.5,-451 316.5,-487"/>
<text text-anchor="middle" x="259" y="-465.3" font-family="Times,serif" font-size="14.00">measurement</text>
</g>
<!-- receive request&#45;&gt;measurement -->
<g id="edge10" class="edge">
<title>receive request&#45;&gt;measurement</title>
<path fill="none" stroke="black" stroke-width="2" stroke-dasharray="1,5" d="M260.53,-525.7C260.29,-517.25 260.01,-506.87 259.75,-497.37"/>
<polygon fill="black" stroke="black" stroke-width="2" points="263.24,-497.08 259.47,-487.18 256.25,-497.27 263.24,-497.08"/>
</g>
<!-- transmit reply -->
<g id="node5" class="node">
<title>transmit reply</title>
<polygon fill="none" stroke="black" stroke-width="2" points="318.5,-415 199.5,-415 199.5,-379 318.5,-379 318.5,-415"/>
<text text-anchor="middle" x="259" y="-393.3" font-family="Times,serif" font-size="14.00">transmit reply</text>
</g>
<!-- measurement&#45;&gt;transmit reply -->
<g id="edge11" class="edge">
<title>measurement&#45;&gt;transmit reply</title>
<path fill="none" stroke="black" stroke-width="2" stroke-dasharray="1,5" d="M259,-450.7C259,-442.98 259,-433.71 259,-425.11"/>
<polygon fill="black" stroke="black" stroke-width="2" points="262.5,-425.1 259,-415.1 255.5,-425.1 262.5,-425.1"/>
</g>
<!-- transmit reply&#45;&gt;receive request -->
<g id="edge12" class="edge">
<title>transmit reply&#45;&gt;receive request</title>
<path fill="none" stroke="black" stroke-width="2" stroke-dasharray="1,5" d="M291.53,-415.02C304.79,-423.82 318.7,-435.91 326,-451 338.97,-477.8 342.86,-493.45 326,-518 325.87,-518.19 325.74,-518.37 325.61,-518.56"/>
<polygon fill="black" stroke="black" stroke-width="2" points="322.99,-516.24 318.73,-525.94 328.11,-521.01 322.99,-516.24"/>
</g>
<!-- receive reply -->
<g id="node8" class="node">
<title>receive reply</title>
<polygon fill="none" stroke="black" stroke-width="2" points="149,-343 39,-343 39,-307 149,-307 149,-343"/>
<text text-anchor="middle" x="94" y="-321.3" font-family="Times,serif" font-size="14.00">receive reply</text>
</g>
<!-- transmit reply&#45;&gt;receive reply -->
<g id="edge2" class="edge">
<title>transmit reply&#45;&gt;receive reply</title>
<path fill="none" stroke="black" stroke-width="2" d="M218.64,-378.88C195.98,-369.26 167.53,-357.19 143.53,-347.01"/>
<polygon fill="black" stroke="black" stroke-width="2" points="144.81,-343.75 134.23,-343.07 142.07,-350.2 144.81,-343.75"/>
</g>
<!-- wait for minute -->
<g id="node6" class="node">
<title>wait for minute</title>
<polygon fill="none" stroke="black" stroke-width="2" points="144.5,-487 17.5,-487 17.5,-451 144.5,-451 144.5,-487"/>
<text text-anchor="middle" x="81" y="-465.3" font-family="Times,serif" font-size="14.00">wait for minute</text>
</g>
<!-- make request -->
<g id="node7" class="node">
<title>make request</title>
<polygon fill="none" stroke="black" stroke-width="2" points="151,-415 37,-415 37,-379 151,-379 151,-415"/>
<text text-anchor="middle" x="94" y="-393.3" font-family="Times,serif" font-size="14.00">make request</text>
</g>
<!-- wait for minute&#45;&gt;make request -->
<g id="edge5" class="edge">
<title>wait for minute&#45;&gt;make request</title>
<path fill="none" stroke="black" stroke-width="2" stroke-dasharray="1,5" d="M84.21,-450.7C85.65,-442.98 87.37,-433.71 88.96,-425.11"/>
<polygon fill="black" stroke="black" stroke-width="2" points="92.44,-425.58 90.82,-415.1 85.56,-424.3 92.44,-425.58"/>
</g>
<!-- make request&#45;&gt;receive request -->
<g id="edge1" class="edge">
<title>make request&#45;&gt;receive request</title>
<path fill="none" stroke="black" stroke-width="2" d="M116.69,-415.12C128.65,-424.83 143.07,-437.68 154,-451 175.86,-477.63 166.6,-495.86 193,-518 194,-518.84 195.04,-519.66 196.1,-520.44"/>
<polygon fill="black" stroke="black" stroke-width="2" points="194.38,-523.5 204.68,-525.98 198.17,-517.62 194.38,-523.5"/>
</g>
<!-- make request&#45;&gt;receive reply -->
<g id="edge6" class="edge">
<title>make request&#45;&gt;receive reply</title>
<path fill="none" stroke="black" stroke-width="2" stroke-dasharray="1,5" d="M94,-378.7C94,-370.98 94,-361.71 94,-353.11"/>
<polygon fill="black" stroke="black" stroke-width="2" points="97.5,-353.1 94,-343.1 90.5,-353.1 97.5,-353.1"/>
</g>
<!-- write to log -->
<g id="node9" class="node">
<title>write to log</title>
<polygon fill="none" stroke="black" stroke-width="2" points="116.5,-271 17.5,-271 17.5,-235 116.5,-235 116.5,-271"/>
<text text-anchor="middle" x="67" y="-249.3" font-family="Times,serif" font-size="14.00">write to log</text>
</g>
<!-- receive reply&#45;&gt;write to log -->
<g id="edge7" class="edge">
<title>receive reply&#45;&gt;write to log</title>
<path fill="none" stroke="black" stroke-width="2" stroke-dasharray="1,5" d="M87.33,-306.7C84.29,-298.81 80.62,-289.3 77.24,-280.55"/>
<polygon fill="black" stroke="black" stroke-width="2" points="80.46,-279.17 73.6,-271.1 73.93,-281.69 80.46,-279.17"/>
</g>
<!-- write to log&#45;&gt;log -->
<g id="edge3" class="edge">
<title>write to log&#45;&gt;log</title>
<path fill="none" stroke="black" stroke-width="2" d="M67,-234.7C67,-226.98 67,-217.71 67,-209.11"/>
<polygon fill="black" stroke="black" stroke-width="2" points="70.5,-209.1 67,-199.1 63.5,-209.1 70.5,-209.1"/>
</g>
<!-- write to log&#45;&gt;wait for minute -->
<g id="edge8" class="edge">
<title>write to log&#45;&gt;wait for minute</title>
<path fill="none" stroke="black" stroke-width="2" stroke-dasharray="1,5" d="M51.13,-271.21C43.2,-280.95 34.38,-293.79 30,-307 27.42,-314.77 23.98,-405.29 28,-415 32.54,-425.97 40.59,-435.86 49.05,-444.04"/>
<polygon fill="black" stroke="black" stroke-width="2" points="46.75,-446.67 56.52,-450.77 51.44,-441.47 46.75,-446.67"/>
</g>
<!-- make graph -->
<g id="node11" class="node">
<title>make graph</title>
<polygon fill="none" stroke="black" stroke-width="2" points="117.5,-52 16.5,-52 16.5,-16 117.5,-16 117.5,-52"/>
<text text-anchor="middle" x="67" y="-30.3" font-family="Times,serif" font-size="14.00">make graph</text>
</g>
<!-- read log&#45;&gt;make graph -->
<g id="edge13" class="edge">
<title>read log&#45;&gt;make graph</title>
<path fill="none" stroke="black" stroke-width="2" stroke-dasharray="1,5" d="M67,-87.7C67,-79.98 67,-70.71 67,-62.11"/>
<polygon fill="black" stroke="black" stroke-width="2" points="70.5,-62.1 67,-52.1 63.5,-62.1 70.5,-62.1"/>
</g>
</g>
</svg>
